<svg width="24px" height="24px" data-encore-id="icon" role="img" aria-hidden="true" viewBox="0 0 24 24" class="Svg-sc-ytk21e-0 ZujEm"><path d="M22.207 2.824a1 1 0 1 0-1.414-1.414L17.15 5.053C15.621 4.363 13.92 4 12 4 8.671 4 5.996 5.091 3.742 7.089c-.896.794-2.3 2.353-3.381 4.453L.125 12l.236.458c1.082 2.1 2.485 3.659 3.381 4.453.278.246.562.479.853.697L1.793 20.41a1 1 0 1 0 1.414 1.414l3.126-3.126.003.002 1.503-1.503-.004-.001 1.73-1.73.004.001 1.567-1.567h-.004l4.68-4.681.001.004 1.595-1.595-.002-.003.11-.109.002.002 1.444-1.444-.003-.002 3.248-3.248zM14.884 7.32l-5.57 5.57A4.035 4.035 0 0 1 8.113 10c0-2.23 1.761-4 3.886-4 1.137 0 2.17.506 2.884 1.319zM7.9 14.304l-1.873 1.873a11.319 11.319 0 0 1-.957-.763C4.396 14.818 3.3 13.621 2.387 12c.913-1.62 2.01-2.818 2.683-3.414.519-.46 1.061-.863 1.634-1.204A6.073 6.073 0 0 0 6.113 10c0 1.681.682 3.21 1.786 4.304zm11.568-5.2 1.415-1.415a16.503 16.503 0 0 1 2.756 3.853l.236.458-.236.458c-1.082 2.1-2.485 3.659-3.381 4.453C18.004 18.908 15.328 20 12 20a13.22 13.22 0 0 1-3.08-.348l1.726-1.726c.435.05.886.074 1.354.074 2.833 0 5.037-.907 6.931-2.586.674-.596 1.77-1.793 2.683-3.414a14.515 14.515 0 0 0-2.146-2.896z"  fill="rgb(179, 179, 179)"></path><path d="M17.843 10.729c-.328 2.755-2.494 4.956-5.24 5.24l5.24-5.24z" fill="rgb(179, 179, 179)"></path></svg>